<svg xmlns="http://www.w3.org/2000/svg" viewBox="0 0 439.44 380"><defs><style>.cls-1{fill:#61d88c;}.cls-2{fill:#755946;}.cls-3{fill:#ffd6ae;}.cls-4{fill:#604939;}.cls-5{fill:#db9475;}.cls-6{fill:#84664f;}.cls-7{fill:none;stroke:#db9475;stroke-linecap:round;stroke-miterlimit:10;stroke-width:5px;}.cls-8{fill:#60a075;}.cls-9{fill:#3f704d;}</style></defs><g id="bg"><circle class="cls-1" cx="220.19" cy="186" r="186"/></g><g id="face"><rect x="188.44" y="263" width="61" height="42" rx="12"/><path d="M352.5,389a47.14,47.14,0,0,0-47-47h-111a47.14,47.14,0,0,0-47,47h0a46.23,46.23,0,0,0,.74,8.2A186.07,186.07,0,0,0,352,396.08a46,46,0,0,0,.54-7.08Z" transform="translate(-29.56 -55)"/><path class="cls-2" d="M209.9,368.49c-.37-8.13,2-16.13,2.62-24.24,1.13-16.5-5.41-32.58-6.17-49.1-.94-20.42,7-40.59,5.14-60.95-1-11.33-5.06-22.16-7.06-33.36-.45-2.52-.79-5.05-1.14-7.59C208,179,215.07,165.37,219.67,151.4c1.5-4.55,2.78-9.73.91-14.12s-6.45-6.63-10.8-7.27c-14.28-2.11-27.43,8.52-37.75,19.7-9.59,10.4-18.39,22-24.07,35.48-14.76,35-6.44,76.1-10,114.57-.82,8.87-2.33,17.81-6.05,25.71s-9.91,14.68-17.63,17.07c6.16.36,12.58.68,18.25-2a16.93,16.93,0,0,0,8.66-10,226.15,226.15,0,0,0,7.46,69.87c2,7.54,4.7,15.33,10.16,20.34,5,4.61,12.49,7.25,14,14.27a70.43,70.43,0,0,1,3.71-41.73c-.22,15.62,9.19,29.12,18.13,41.18-7.33-9.39-7.68-23.22-5.94-35.52.89-6.34,2.23-12.68,3.16-19a43.73,43.73,0,0,0,8.12,9.5,40.56,40.56,0,0,0,29.26,9.09A36.19,36.19,0,0,1,209.9,368.49Z" transform="translate(-29.56 -55)"/><path class="cls-2" d="M287,323.66c-3.95,11.71-7.65,24.47-3.75,36.2,2.15,6.46,6.46,12,8.66,18.47,5.5,16.17-3.35,33.63-13.76,47.16a54.58,54.58,0,0,0,24.66-25.95c-2.24,9.68-4.27,20.65,1.25,28.91-1-13.62,8.81-25.26,16-36.9,7-11.41,11.75-24.05,15.61-36.86,11.09-36.82,15.05-76,9.73-114.07-3-21.53-8.93-42.55-15.2-63.37-3-10-7.16-21.11-16.84-24.92q3.6,21.54,6.2,43.23c2.49,20.78,2.13,41.11-6.25,60.53C303.62,278.3,294.71,300.74,287,323.66Z" transform="translate(-29.56 -55)"/><rect class="cls-3" x="143.69" y="86" width="153" height="192" rx="60.65"/><rect class="cls-4" x="168.44" y="158" width="33" height="10" rx="5"/><rect class="cls-5" x="124.44" y="177" width="31" height="48" rx="12"/><path class="cls-6" d="M215.78,213.78c-19.78,16.31-47.22,24.31-71.9,17.37a38.69,38.69,0,0,0,28.68-9.6c-8,3.55-17.62,1.19-24.68-4s-12-12.66-16.3-20.23c-.94-1.65-1.89-3.53-1.41-5.36,6.93,4.27,15.23,6.59,23.31,5.59s15.86-5.54,20-12.58c3.34-5.76,4.08-12.6,5.33-19.14,3.35-17.51,12.25-35.53,28.56-42.72,10.32-4.55,22.19-4.11,33.25-1.89s21.73,6.14,32.79,8.35c9.48,1.9,19.38,2.6,28.1,6.78,10.13,4.87,17.64,14.07,22.69,24.12s7.91,21,11,31.82c4.25,15,9,30,10.13,45.51s-1.71,32-11.27,44.24-26.82,19.25-41.41,13.82a48,48,0,0,0,25.14-26.55c-2.68,5.77-9,9.14-15.35,9.91s-12.68-.63-18.86-2.13c4.74-2,9.53-4.07,13.65-7.16,9.18-6.87,14.11-18.26,15.6-29.62s-.06-22.89-1.61-34.25c-.92-6.77-1.89-13.7-5.05-19.76-7-13.49-35.71-38.08-51.52-25.85-8,6.2-11,18.91-16.28,27.29A107.69,107.69,0,0,1,215.78,213.78Z" transform="translate(-29.56 -55)"/><path class="cls-6" d="M186.66,295.78c-1.2,11-3.47,22.54-11.12,30.47-5.74,5.94-13.79,9-21.77,11.19a54.08,54.08,0,0,0,18.72-21.22,31.55,31.55,0,0,1-28,8c10.66-8.19,12.17-23.34,13.76-36.7,3-25.29,9.41-50.07,17.23-74.3,2.38-7.35,10.45-25.34,21.64-18.79,7.4,4.33-.35,15.23-2.13,21.18C187.29,241.26,189.54,269.37,186.66,295.78Z" transform="translate(-29.56 -55)"/><rect class="cls-4" x="236.44" y="158" width="33" height="10" rx="5"/><path class="cls-5" d="M244.92,264.8l-4,6.86a5.86,5.86,0,0,0,5.08,8.8H254a5.86,5.86,0,0,0,5.08-8.8l-4-6.86A5.87,5.87,0,0,0,244.92,264.8Z" transform="translate(-29.56 -55)"/><path class="cls-7" d="M272.21,298s-20.59,15.75-44.42,0" transform="translate(-29.56 -55)"/></g><g id="eyes"><rect x="246.18" y="176.98" width="17.27" height="23.02" rx="8.63"/><rect x="177.44" y="176.98" width="17.27" height="23.02" rx="8.63"/></g><g id="leaf1"><path class="cls-8" d="M398.59,336.17c-4.33-6.5-7.92-13.33-9.62-20.65a40.93,40.93,0,0,1-1-12.52,32.32,32.32,0,0,1,4.42-14.74,23.36,23.36,0,0,1,6-6.64,17,17,0,0,1,12.28-3.56,22.83,22.83,0,0,1,9.57,3.36A29.38,29.38,0,0,1,427,287.3a38,38,0,0,1,4.27,6,47.42,47.42,0,0,1,3.44,7.41,46.43,46.43,0,0,1,2.79,19.61,37.16,37.16,0,0,1-2.37,10,94,94,0,0,1-6.32,13.1c-2.16,3.85-4.15,7.79-6,11.8a26.67,26.67,0,0,1-4,6.42c-.49.56-.53.54-1-.05C412,353.47,404.57,345.12,398.59,336.17Z" transform="translate(-29.56 -55)"/><path class="cls-9" d="M408,281a39.52,39.52,0,0,1,7,10.16,58.43,58.43,0,0,1,4.2,11.45,52.74,52.74,0,0,1,1.64,12.14q0,1.54-.06,3.09c0,1-.19,2.06-.31,3.09l-.23,1.53c-.1.51-.21,1-.34,1.53a29.57,29.57,0,0,1-.89,3c-1.54-4-2.51-7.73-3.62-11.48s-2-7.46-3-11.2-1.81-7.52-2.6-11.36A100.15,100.15,0,0,1,408,281Z" transform="translate(-29.56 -55)"/></g><g id="leaf2"><path class="cls-8" d="M442.28,204.87c-6.4-.11-12.67-.88-18.4-3.15a33.5,33.5,0,0,1-8.93-5.13,26.62,26.62,0,0,1-7.87-9.85,19,19,0,0,1-1.67-7.15,13.89,13.89,0,0,1,3.32-9.93,18.86,18.86,0,0,1,6.73-4.89,24.36,24.36,0,0,1,7.15-1.87,32.28,32.28,0,0,1,6.06-.06,38.66,38.66,0,0,1,6.59,1.14,37.92,37.92,0,0,1,14.53,7.27,30.82,30.82,0,0,1,5.64,6.26,76.8,76.8,0,0,1,5.88,10.37c1.59,3.26,3.32,6.43,5.16,9.55a22,22,0,0,1,2.46,5.7c.14.59.12.6-.48.62C460.18,203.92,451.1,205,442.28,204.87Z" transform="translate(-29.56 -55)"/><path class="cls-9" d="M408.18,169.76a39.46,39.46,0,0,1,12.3,1,58.19,58.19,0,0,1,11.53,4,52.25,52.25,0,0,1,10.46,6.39c.8.64,1.58,1.31,2.35,2s1.49,1.45,2.2,2.19l1.05,1.14c.33.4.66.81,1,1.23a31.2,31.2,0,0,1,1.78,2.59c-4.05-1.3-7.58-2.93-11.19-4.43s-7.07-3.15-10.58-4.76-7-3.33-10.45-5.15A100.07,100.07,0,0,1,408.18,169.76Z" transform="translate(-29.56 -55)"/></g><g id="leaf3"><path class="cls-8" d="M402.69,101.11c-4.61,4.45-9.59,8.34-15.24,10.79a33.44,33.44,0,0,1-9.94,2.67,26.46,26.46,0,0,1-12.53-1.4,19.09,19.09,0,0,1-6.24-3.86,13.91,13.91,0,0,1-4.67-9.38,18.74,18.74,0,0,1,1.3-8.21,24.19,24.19,0,0,1,3.74-6.38A30.37,30.37,0,0,1,363.35,81a37.73,37.73,0,0,1,5.46-3.87A38.16,38.16,0,0,1,384.22,72a30.49,30.49,0,0,1,8.42.44,77.28,77.28,0,0,1,11.49,3.18q5.14,1.76,10.4,3.11A21.46,21.46,0,0,1,420.3,81c.52.31.51.34.1.77C414.67,87.78,409,95,402.69,101.11Z" transform="translate(-29.56 -55)"/><path class="cls-9" d="M354.51,105.9a39.39,39.39,0,0,1,8.17-9.24,57.48,57.48,0,0,1,10.1-6.84,52.37,52.37,0,0,1,11.38-4.53c1-.25,2-.48,3-.69s2.05-.31,3.07-.44l1.54-.15c.52,0,1.05,0,1.57,0a30.09,30.09,0,0,1,3.14.13c-3.47,2.46-6.89,4.3-10.26,6.29s-6.76,3.76-10.16,5.6-6.85,3.57-10.39,5.27A101.07,101.07,0,0,1,354.51,105.9Z" transform="translate(-29.56 -55)"/></g><g id="Layer_8" data-name="Layer 8"><path class="cls-8" d="M104.69,101.49A42,42,0,0,0,117,110a27,27,0,0,0,8,2,21.44,21.44,0,0,0,10-1.28,15.38,15.38,0,0,0,4.95-3.18,11.2,11.2,0,0,0,3.63-7.58,15,15,0,0,0-1.15-6.57,19.73,19.73,0,0,0-3.07-5.07A25.27,25.27,0,0,0,136,84.89a31.57,31.57,0,0,0-16.85-7,24.64,24.64,0,0,0-6.75.45,61.94,61.94,0,0,0-9.18,2.69c-2.73,1-5.5,1.85-8.3,2.63a17.26,17.26,0,0,0-4.59,1.9c-.41.26-.41.28-.07.63C94.91,91,99.52,96.65,104.69,101.49Z" transform="translate(-29.56 -55)"/><path class="cls-9" d="M143.92,100.31a59.88,59.88,0,0,1-9.65-1.78c-3-.8-6-1.71-8.9-2.72s-5.77-2.07-8.64-3.28a76,76,0,0,1-8.79-4.23,25.37,25.37,0,0,1,10-1.14,38.28,38.28,0,0,1,9.69,2,41,41,0,0,1,8.85,4.32A27.86,27.86,0,0,1,143.92,100.31Z" transform="translate(-29.56 -55)"/></g><g id="Layer_9" data-name="Layer 9"><path class="cls-8" d="M62.45,253.46c7.8-1.34,15.32-3.45,21.89-7.3a41.56,41.56,0,0,0,9.94-7.95A32.83,32.83,0,0,0,102,224.7a23.39,23.39,0,0,0,.7-9,17.21,17.21,0,0,0-5.92-11.52,23.35,23.35,0,0,0-9.14-4.69,29.69,29.69,0,0,0-9.09-.94,37.73,37.73,0,0,0-7.4,1.06A48.6,48.6,0,0,0,47,213.8a37.78,37.78,0,0,0-5.72,8.71A94.32,94.32,0,0,0,36,236.29q-2,6.41-4.51,12.63a27.22,27.22,0,0,0-1.93,7.43c-.07.74,0,.75.7.66C40.41,255.66,51.7,255.3,62.45,253.46Z" transform="translate(-29.56 -55)"/><path class="cls-9" d="M97.51,204.17c-3.93,3.26-7.9,6.1-11.88,8.89s-8,5.48-11.95,8.14l-12,8c-4.06,2.64-8,5.43-12.42,8A48.36,48.36,0,0,1,58.17,225a71.93,71.93,0,0,1,11.62-9.58A79.64,79.64,0,0,1,83,208.25,54.88,54.88,0,0,1,97.51,204.17Z" transform="translate(-29.56 -55)"/></g><g id="leaf6"><path class="cls-8" d="M112.84,392.3a49,49,0,0,0,11.62-13,31.75,31.75,0,0,0,3.52-9,24.78,24.78,0,0,0,0-11.8,17.82,17.82,0,0,0-2.95-6.2,13,13,0,0,0-8.23-5.33,17.64,17.64,0,0,0-7.78.36,23,23,0,0,0-6.32,2.81,29.44,29.44,0,0,0-4.46,3.49,36.16,36.16,0,0,0-4.16,4.68,35.54,35.54,0,0,0-6.37,13.8,28.53,28.53,0,0,0-.48,7.88A74.59,74.59,0,0,0,89,391c.74,3.3,1.33,6.64,1.81,10a20.5,20.5,0,0,0,1.53,5.6c.24.51.26.51.71.17C99.19,402.06,106.48,397.56,112.84,392.3Z" transform="translate(-29.56 -55)"/><path class="cls-9" d="M117.27,346.72a85.58,85.58,0,0,1-3.88,10.66c-1.45,3.38-3,6.65-4.59,9.88s-3.23,6.42-5,9.62a112.29,112.29,0,0,1-5.77,9.71,29.39,29.39,0,0,1-.27-2.95q0-.74,0-1.47l.07-1.46c.08-1,.15-1.94.3-2.9s.33-1.9.53-2.84a48.13,48.13,0,0,1,3.88-10.82,52.52,52.52,0,0,1,6.18-9.62A35.36,35.36,0,0,1,117.27,346.72Z" transform="translate(-29.56 -55)"/></g></svg>